<svg display="block" role="presentation" viewBox="0 0 140 28" xmlns="http://www.w3.org/2000/svg"><g d="M 0 28 L 0 0 L 140 0 L 140 28 Z M 0 27.239 L 8.136 27.239 L 8.136 8.979 L 16.729 27.26 L 23.378 27.26 L 31.907 8.936 L 31.907 27.239 L 40.893 27.239 L 40.893 0.539 L 27.794 0.539 L 20.446 16.415 L 13.056 0.496 L 0 0.496 Z M 47.203 0.559 L 47.203 27.229 L 72.628 27.229 L 72.628 19.912 L 56.027 19.912 L 56.027 0.559 Z M 139.964 27.195 L 112.998 27.195 L 112.998 0.559 L 139.994 0.559 L 139.994 7.087 L 121.788 7.087 L 121.788 10.762 L 135.368 10.762 L 135.368 16.797 L 121.788 16.797 L 121.788 20.798 L 139.964 20.798 Z M 78.953 18.205 L 76.197 24.341 C 76.197 24.341 82.789 27.852 92.238 27.852 C 101.686 27.852 107.392 24.341 107.392 18.896 C 107.392 13.452 103.617 11.811 94.141 10.435 C 86.464 9.32 86.629 8.925 86.629 8.072 C 86.629 7.219 87.811 6.431 91.942 6.431 C 96.075 6.431 101.555 8.005 104.013 9.089 L 106.899 3.054 C 106.899 3.054 101.454 0 92.664 0 C 83.874 0 77.738 3.346 77.738 8.921 C 77.738 14.497 83.675 16.171 89.744 17.121 C 95.812 18.071 98.602 18.172 98.602 19.484 C 98.602 20.797 97.027 21.387 92.96 21.387 C 88.891 21.387 84.203 20.599 78.953 18.205 Z" fill="transparent" height="28px" id="IZ8sqlLcb" width="140px"><path d="M 0 28 L 0 0 L 140 0 L 140 28 Z" fill="transparent" height="28px" id="smC3GoqjW" width="140px"/><g d="M 0 27.239 L 8.136 27.239 L 8.136 8.979 L 16.729 27.26 L 23.378 27.26 L 31.907 8.936 L 31.907 27.239 L 40.893 27.239 L 40.893 0.539 L 27.794 0.539 L 20.446 16.415 L 13.056 0.496 L 0 0.496 Z M 47.203 0.559 L 47.203 27.229 L 72.628 27.229 L 72.628 19.912 L 56.027 19.912 L 56.027 0.559 Z M 139.964 27.195 L 112.998 27.195 L 112.998 0.559 L 139.994 0.559 L 139.994 7.087 L 121.788 7.087 L 121.788 10.762 L 135.368 10.762 L 135.368 16.797 L 121.788 16.797 L 121.788 20.798 L 139.964 20.798 Z M 78.953 18.205 L 76.197 24.341 C 76.197 24.341 82.789 27.852 92.238 27.852 C 101.686 27.852 107.392 24.341 107.392 18.896 C 107.392 13.452 103.617 11.811 94.141 10.435 C 86.464 9.32 86.629 8.925 86.629 8.072 C 86.629 7.219 87.811 6.431 91.942 6.431 C 96.075 6.431 101.555 8.005 104.013 9.089 L 106.899 3.054 C 106.899 3.054 101.454 0 92.664 0 C 83.874 0 77.738 3.346 77.738 8.921 C 77.738 14.497 83.675 16.171 89.744 17.121 C 95.812 18.071 98.602 18.172 98.602 19.484 C 98.602 20.797 97.027 21.387 92.96 21.387 C 88.891 21.387 84.203 20.599 78.953 18.205 Z" fill="transparent" height="27.8515px" id="maZCv1pyJ" width="139.9940010986328px"><path d="M 0 26.743 L 8.136 26.743 L 8.136 8.483 L 16.729 26.764 L 23.378 26.764 L 31.907 8.44 L 31.907 26.743 L 40.893 26.743 L 40.893 0.043 L 27.794 0.043 L 20.446 15.919 L 13.056 0 L 0 0 Z" fill="rgb(29, 28, 27)" height="26.764306px" id="ZXrej3py6" transform="translate(0 0.496)" width="40.8926px"/><path d="M 0 0 L 0 26.67 L 25.425 26.67 L 25.425 19.353 L 8.824 19.353 L 8.824 0 Z" fill="rgb(29, 28, 27)" height="26.670006px" id="B1AJf9TyG" transform="translate(47.203 0.559)" width="25.424699999999994px"/><path d="M 26.966 26.637 L 0 26.637 L 0 0 L 26.996 0 L 26.996 6.528 L 8.79 6.528 L 8.79 10.203 L 22.37 10.203 L 22.37 16.238 L 8.79 16.238 L 8.79 20.239 L 26.966 20.239 Z" fill="rgb(29, 28, 27)" height="26.636506px" id="WXVXewPYp" transform="translate(112.998 0.559)" width="26.995999999999995px"/><path d="M 2.755 18.205 L 0 24.341 C 0 24.341 6.592 27.852 16.04 27.852 C 25.489 27.852 31.195 24.341 31.195 18.896 C 31.195 13.452 27.42 11.811 17.944 10.435 C 10.267 9.32 10.432 8.925 10.432 8.072 C 10.432 7.219 11.613 6.431 15.745 6.431 C 19.877 6.431 25.358 8.005 27.816 9.089 L 30.702 3.054 C 30.702 3.054 25.257 0 16.467 0 C 7.676 0 1.541 3.346 1.541 8.921 C 1.541 14.497 7.478 16.171 13.547 17.121 C 19.615 18.071 22.404 18.172 22.404 19.484 C 22.404 20.797 20.83 21.387 16.762 21.387 C 12.694 21.387 8.005 20.599 2.755 18.205 Z" fill="rgb(29, 28, 27)" height="27.8515px" id="u0r1KNmC3" transform="translate(76.197 0)" width="31.194699999999997px"/></g></g></svg>